#N canvas 535 149 758 528 24;
#X obj 131 286 bng 15 250 50 0 empty empty empty 17 7 0 10 -262144
-1 -1;
#X obj 212 283 bng 15 250 50 0 empty empty empty 17 7 0 10 -262144
-1 -1;
#X obj 272 283 bng 15 250 50 0 empty empty empty 17 7 0 10 -262144
-1 -1;
#X obj 388 284 bng 15 250 50 0 empty empty empty 17 7 0 10 -262144
-1 -1;
#X obj 326 413 osc~;
#X obj 297 348;
#X obj 298 348;
#X obj 298 348;
#X obj 298 348;
#X obj 137 348 110;
#X obj 231 348 220;
#X obj 298 348 440;
#X obj 387 348 820;
#X obj 333 304 440;
#X obj 267 456 dac~;
#X obj 147 200 % 5;
#X obj 454 265 bng 15 250 50 0 empty empty empty 17 7 0 10 -262144
-1 -1;
#X obj 188 234 select 0 1 2 3 4 5;
#X obj 532 99;
#X obj 200 103 metro 500;
#X obj 106 136 f;
#X obj 545 304 440;
#X obj 202 137 + 1;
#X obj 180 43 bng 15 250 50 0 empty empty empty 17 7 0 10 -262144 -1
-1;
#X connect 0 0 9 0;
#X connect 1 0 10 0;
#X connect 2 0 13 0;
#X connect 3 0 12 0;
#X connect 4 0 14 0;
#X connect 9 0 4 0;
#X connect 10 0 4 0;
#X connect 12 0 4 0;
#X connect 12 0 4 1;
#X connect 13 0 4 0;
#X connect 15 0 17 0;
#X connect 16 0 21 0;
#X connect 17 0 0 0;
#X connect 17 1 1 0;
#X connect 17 2 2 0;
#X connect 17 3 3 0;
#X connect 17 4 16 0;
#X connect 17 5 16 0;
#X connect 19 0 20 0;
#X connect 20 0 15 0;
#X connect 20 0 22 0;
#X connect 21 0 4 1;
#X connect 21 0 4 0;
#X connect 22 0 20 1;
#X connect 23 0 19 0;
